# xmcd CD database file
#
# Track frame offsets:
#	150
#	8884
#	18174
#	30559
#	42424
#	51318
#	64666
#	84054
#	99465
#	105457
#	117404
#	133733
#	145085
#
# Disc length: 2458 seconds
#
# Revision: 2
# Processed by: cddbd v1.5.1PL2 Copyright (c) Steve Scherf et al.
# Submitted via: CDex 1.51
#
DISCID=a109980d
DTITLE=SOBUT - MAXIMUM CULTURE
DYEAR=2001
DGENRE=Rock
TTITLE0=BOOOOM
TTITLE1=90’s CULTURE BOOK
TTITLE2=SOBUT×WE GO!(ENGLISH VERSION)
TTITLE3=Level-G
TTITLE4=BASTARDS BOP
TTITLE5=Punk’n’Roll,ya
TTITLE6=swingin’ mosh
TTITLE7=ROOKIE
TTITLE8=SLOGAN
TTITLE9=HELIPORT-2H
TTITLE10=HAP’P’EACE
TTITLE11=BUZZ 4 BUZZ
TTITLE12=FRANTIC SOULZ
EXTD=YEAR: 2001
EXTT0=
EXTT1=
EXTT2=
EXTT3=
EXTT4=
EXTT5=
EXTT6=
EXTT7=
EXTT8=
EXTT9=
EXTT10=
EXTT11=
EXTT12=
PLAYORDER=
